<svg width="76" height="45" viewBox="0 0 76 45" fill="none" xmlns="http://www.w3.org/2000/svg">
<path d="M-9.93441e-07 31.5C-1.5421e-06 24.5964 17.0132 19 38 19C58.9868 19 76 24.5964 76 31.5C76 38.4036 58.9868 44 38 44C17.0132 44 -4.44779e-07 38.4036 -9.93441e-07 31.5Z" fill="#DE8969"/>
<path fill-rule="evenodd" clip-rule="evenodd" d="M4.21405 28.2132C2.51598 29.5338 2 30.6611 2 31.5C2 32.3389 2.51598 33.4662 4.21405 34.7868C5.88651 36.0875 8.43143 37.3457 11.7549 38.439C18.3803 40.6184 27.6595 42 38 42C48.3405 42 57.6197 40.6184 64.2451 38.439C67.5686 37.3457 70.1135 36.0875 71.7859 34.7868C73.484 33.4662 74 32.3389 74 31.5C74 30.6611 73.484 29.5338 71.7859 28.2132C70.1135 26.9125 67.5686 25.6543 64.2451 24.561C57.6197 22.3816 48.3405 21 38 21C27.6595 21 18.3803 22.3816 11.7549 24.561C8.43143 25.6543 5.88651 26.9125 4.21405 28.2132ZM38 19C17.0132 19 -1.5421e-06 24.5964 -9.93441e-07 31.5C-4.44779e-07 38.4036 17.0132 44 38 44C58.9868 44 76 38.4036 76 31.5C76 24.5964 58.9868 19 38 19Z" fill="#F4EDE4"/>
<path d="M-9.93441e-07 22.5C-1.5421e-06 15.5964 17.0132 10 38 10C58.9868 9.99999 76 15.5964 76 22.5C76 29.4036 58.9868 35 38 35C17.0132 35 -4.44779e-07 29.4036 -9.93441e-07 22.5Z" fill="#DE8969"/>
<path fill-rule="evenodd" clip-rule="evenodd" d="M4.21405 19.2132C2.51598 20.5338 2 21.6611 2 22.5C2 23.3389 2.51598 24.4662 4.21405 25.7868C5.88651 27.0875 8.43143 28.3457 11.7549 29.439C18.3803 31.6184 27.6595 33 38 33C48.3405 33 57.6197 31.6184 64.2451 29.439C67.5686 28.3457 70.1135 27.0875 71.7859 25.7868C73.484 24.4662 74 23.3389 74 22.5C74 21.6611 73.484 20.5338 71.7859 19.2132C70.1135 17.9125 67.5686 16.6543 64.2451 15.561C57.6197 13.3816 48.3405 12 38 12C27.6595 12 18.3803 13.3816 11.7549 15.561C8.43143 16.6543 5.88651 17.9125 4.21405 19.2132ZM38 10C17.0132 10 -1.5421e-06 15.5964 -9.93441e-07 22.5C-4.44779e-07 29.4036 17.0132 35 38 35C58.9868 35 76 29.4036 76 22.5C76 15.5964 58.9868 9.99999 38 10Z" fill="#F4EDE4"/>
<path d="M-9.50248e-07 12.5C-1.47506e-06 5.59644 17.0132 -1.69908e-06 38 -3.80902e-06C58.9868 -5.91895e-06 76 5.59644 76 12.5C76 19.4036 58.9868 25 38 25C17.0132 25 -4.2544e-07 19.4036 -9.50248e-07 12.5Z" fill="#DE8969"/>
<path fill-rule="evenodd" clip-rule="evenodd" d="M4.21405 9.21319C2.51598 10.5338 2 11.6611 2 12.5C2 13.3389 2.51598 14.4662 4.21405 15.7868C5.88651 17.0875 8.43143 18.3457 11.7549 19.439C18.3803 21.6184 27.6595 23 38 23C48.3405 23 57.6197 21.6184 64.2451 19.439C67.5686 18.3457 70.1135 17.0875 71.7859 15.7868C73.484 14.4662 74 13.3389 74 12.5C74 11.6611 73.484 10.5338 71.7859 9.21318C70.1135 7.91248 67.5686 6.65426 64.2451 5.56101C57.6197 3.3816 48.3405 2 38 2C27.6595 2 18.3803 3.38161 11.7549 5.56102C8.43143 6.65426 5.88651 7.91248 4.21405 9.21319ZM38 -3.80902e-06C17.0132 -1.69908e-06 -1.47506e-06 5.59644 -9.50248e-07 12.5C-4.2544e-07 19.4036 17.0132 25 38 25C58.9868 25 76 19.4036 76 12.5C76 5.59644 58.9868 -5.91895e-06 38 -3.80902e-06Z" fill="white"/>
<path fill-rule="evenodd" clip-rule="evenodd" d="M4.21405 9.21319C2.51598 10.5338 2 11.6611 2 12.5C2 13.3389 2.51598 14.4662 4.21405 15.7868C5.88651 17.0875 8.43143 18.3457 11.7549 19.439C18.3803 21.6184 27.6595 23 38 23C48.3405 23 57.6197 21.6184 64.2451 19.439C67.5686 18.3457 70.1135 17.0875 71.7859 15.7868C73.484 14.4662 74 13.3389 74 12.5C74 11.6611 73.484 10.5338 71.7859 9.21318C70.1135 7.91248 67.5686 6.65426 64.2451 5.56101C57.6197 3.3816 48.3405 2 38 2C27.6595 2 18.3803 3.38161 11.7549 5.56102C8.43143 6.65426 5.88651 7.91248 4.21405 9.21319ZM38 -3.80902e-06C17.0132 -1.69908e-06 -1.47506e-06 5.59644 -9.50248e-07 12.5C-4.2544e-07 19.4036 17.0132 25 38 25C58.9868 25 76 19.4036 76 12.5C76 5.59644 58.9868 -5.91895e-06 38 -3.80902e-06Z" fill="#F4EDE4"/>
<path d="M14.8495 14.8684C17 8.86266 19.8571 13.3629 21.5714 7.33996C23.2857 1.31704 50.7143 -0.188735 52.4286 5.8341C54.1429 11.8569 57 9.34744 57 14.8684C57 18.0427 50.7143 19.8876 40.4286 19.8876C30.1429 19.8876 28.5638 25.244 28.5638 30.9123C28.5638 40.4485 25.1352 45.4676 18.2781 44.9657C14.3373 44.6772 10.2781 40.4485 15.4209 32.9199C15.7314 28.9781 13.3913 26.5971 14.8495 24.8894C18.2781 20.8741 12.6991 20.8741 14.8495 14.8684Z" fill="#FED4BE"/>
<g clip-path="url(#clip0)">
<path fill-rule="evenodd" clip-rule="evenodd" d="M35.1652 7.65453L29.3168 7.44416C28.1055 7.40058 27.1011 7.9901 27.0734 8.76091C27.0457 9.53172 28.0051 10.1919 29.2164 10.2355L35.0648 10.4458C36.2761 10.4894 37.2804 9.89988 37.3082 9.12907C37.3359 8.35826 36.3765 7.6981 35.1652 7.65453Z" fill="#DE8969"/>
<path fill-rule="evenodd" clip-rule="evenodd" d="M43.1566 9.33943L43.2905 5.6177C43.3182 4.84689 42.3588 4.18673 41.1475 4.14316C39.9362 4.09959 38.9319 4.68911 38.9042 5.45992L38.7703 9.18165C38.7425 9.95246 39.702 10.6126 40.9132 10.6562C42.1245 10.6998 43.1289 10.1102 43.1566 9.33943Z" fill="#DE8969"/>
<path fill-rule="evenodd" clip-rule="evenodd" d="M40.7794 14.3779L46.6278 14.5883C47.8391 14.6319 48.8434 14.0424 48.8712 13.2716C48.8989 12.5007 47.9395 11.8406 46.7282 11.797L40.8798 11.5866C39.6685 11.5431 38.6641 12.1326 38.6364 12.9034C38.6087 13.6742 39.5681 14.3344 40.7794 14.3779Z" fill="#DE8969"/>
<path fill-rule="evenodd" clip-rule="evenodd" d="M32.788 12.693L32.6541 16.4147C32.6264 17.1856 33.5858 17.8457 34.7971 17.8893C36.0083 17.9329 37.0127 17.3433 37.0404 16.5725L37.1743 12.8508C37.202 12.0799 36.2426 11.4198 35.0313 11.3763C33.8201 11.3327 32.8157 11.9222 32.788 12.693Z" fill="#DE8969"/>
<path fill-rule="evenodd" clip-rule="evenodd" d="M35.2991 3.9328C34.0878 3.88923 33.0834 4.47875 33.0557 5.24956C33.028 6.02037 33.9874 6.68053 35.1987 6.7241L37.3918 6.80299L37.442 5.40734C37.4698 4.63653 36.5104 3.97637 35.2991 3.9328Z" fill="#DE8969"/>
<path fill-rule="evenodd" clip-rule="evenodd" d="M49.005 9.54983C49.0328 8.77902 48.0734 8.11886 46.8621 8.07529C45.6508 8.03172 44.6464 8.62124 44.6187 9.39205L44.5685 10.7877L46.7617 10.8666C47.9729 10.9102 48.9773 10.3206 49.005 9.54983Z" fill="#DE8969"/>
<path fill-rule="evenodd" clip-rule="evenodd" d="M40.6455 18.0997C41.8568 18.1432 42.8611 17.5537 42.8888 16.7829C42.9166 16.0121 41.9572 15.3519 40.7459 15.3084L38.5527 15.2295L38.5025 16.6251C38.4748 17.3959 39.4342 18.0561 40.6455 18.0997Z" fill="#DE8969"/>
<path fill-rule="evenodd" clip-rule="evenodd" d="M26.9395 12.4827C26.9118 13.2535 27.8712 13.9136 29.0825 13.9572C30.2938 14.0008 31.2981 13.4112 31.3259 12.6404L31.3761 11.2448L29.1829 11.1659C27.9716 11.1223 26.9673 11.7118 26.9395 12.4827Z" fill="#DE8969"/>
</g>
<defs>
<clipPath id="clip0">
<rect width="22" height="14" fill="white" transform="translate(27.2587 3.60907) rotate(2.06011)"/>
</clipPath>
</defs>
</svg>
