<svg width="30" height="30" viewBox="0 0 30 30" fill="none" xmlns="http://www.w3.org/2000/svg">
<g clip-path="url(#clip0)">
<path fill-rule="evenodd" clip-rule="evenodd" d="M10.9729 8.05418H2.99261C1.3398 8.05418 0 9.39399 0 11.0468C0 12.6996 1.3398 14.0394 2.99261 14.0394H10.9729C12.6257 14.0394 13.9655 12.6996 13.9655 11.0468C13.9655 9.39399 12.6257 8.05418 10.9729 8.05418Z" fill="#36C5F0"/>
<path fill-rule="evenodd" clip-rule="evenodd" d="M21.9458 11.0468V3.0665C21.9458 1.41369 20.606 0.0738907 18.9532 0.0738907C17.3004 0.0738907 15.9606 1.41369 15.9606 3.0665V11.0468C15.9606 12.6996 17.3004 14.0394 18.9532 14.0394C20.606 14.0394 21.9458 12.6996 21.9458 11.0468Z" fill="#2EB67D"/>
<path fill-rule="evenodd" clip-rule="evenodd" d="M18.9532 22.0197H26.9335C28.5863 22.0197 29.9261 20.6799 29.9261 19.0271C29.9261 17.3743 28.5863 16.0345 26.9335 16.0345H18.9532C17.3004 16.0345 15.9606 17.3743 15.9606 19.0271C15.9606 20.6799 17.3004 22.0197 18.9532 22.0197Z" fill="#ECB22E"/>
<path fill-rule="evenodd" clip-rule="evenodd" d="M7.9803 19.0271V27.0074C7.9803 28.6602 9.3201 30 10.9729 30C12.6257 30 13.9655 28.6602 13.9655 27.0074V19.0271C13.9655 17.3741 12.6257 16.0345 10.9729 16.0345C9.3201 16.0345 7.9803 17.3743 7.9803 19.0271Z" fill="#E01E5A"/>
<path fill-rule="evenodd" clip-rule="evenodd" d="M10.9729 0.0738907C9.3201 0.0738907 7.9803 1.41369 7.9803 3.0665C7.9803 4.71931 9.3201 6.05911 10.9729 6.05911H13.9655V3.0665C13.9655 1.41369 12.6257 0.0738907 10.9729 0.0738907Z" fill="#36C5F0"/>
<path fill-rule="evenodd" clip-rule="evenodd" d="M29.9261 11.0468C29.9261 9.39399 28.5863 8.05418 26.9335 8.05418C25.2807 8.05418 23.9409 9.39399 23.9409 11.0468V14.0394H26.9335C28.5863 14.0394 29.9261 12.6996 29.9261 11.0468Z" fill="#2EB67D"/>
<path fill-rule="evenodd" clip-rule="evenodd" d="M18.9532 30C20.606 30 21.9458 28.6602 21.9458 27.0074C21.9458 25.3546 20.606 24.0148 18.9532 24.0148H15.9606V27.0074C15.9606 28.6602 17.3004 30 18.9532 30Z" fill="#ECB22E"/>
<path fill-rule="evenodd" clip-rule="evenodd" d="M0 19.0271C0 20.6799 1.3398 22.0197 2.99261 22.0197C4.64542 22.0197 5.98522 20.6799 5.98522 19.0271V16.0345H2.99261C1.3398 16.0345 0 17.3743 0 19.0271Z" fill="#E01E5A"/>
</g>
<defs>
<clipPath id="clip0">
<rect width="30" height="30" fill="white"/>
</clipPath>
</defs>
</svg>
